<svg width="374" height="236" viewBox="0 0 374 236" fill="none" xmlns="http://www.w3.org/2000/svg">
<path d="M365.191 47.0765C355.773 28.3365 335.092 14.2436 314.964 18.5676C302.912 21.1574 290.935 29.8416 279.379 25.4814C271.049 22.3394 266.349 13.426 259.346 7.83434C248.57 -0.772404 233.274 -0.671845 220.142 3.18396C207.009 7.03977 194.988 14.1315 182.014 18.5165C159.903 25.9875 135.224 25.1764 113.624 16.268C104.141 12.3578 95.266 6.96064 85.6141 3.51695C75.9606 0.0732697 65.013 -1.26365 55.6958 3.04219C46.3785 7.34803 39.6923 18.6105 42.9266 28.5492C43.5712 30.5307 44.5833 32.4841 44.4498 34.5678C44.2371 37.9109 41.0885 40.3589 37.902 41.1024C34.7155 41.8459 31.3954 41.3612 28.1281 41.4453C13.4682 41.8261 0.367663 55.5349 0.298427 70.5674C0.24073 83.0333 7.74134 93.9875 14.1523 104.579C20.5649 115.17 26.3264 127.88 22.5068 139.715C20.2418 146.732 14.9287 152.222 11.4471 158.695C2.42332 175.479 7.24679 197.697 19.8478 211.852C32.4488 226.008 51.3207 232.935 69.9469 234.585C88.5731 236.234 107.252 233.138 125.707 230.078C144.162 227.019 162.856 223.975 181.473 225.728L180.473 225.171C216.843 234.381 254.889 236.593 292.042 231.656C299.82 230.622 308.75 228.4 312.037 221.1C314.813 214.938 312.32 207.713 312.891 200.951C313.713 191.205 320.848 183.223 328.627 177.557C336.406 171.892 345.231 167.675 352.238 161.036C365.949 148.05 370.601 127.946 372.645 108.926C374.898 87.9721 374.608 65.8165 365.191 47.0765Z" fill="url(#paint0_linear_434_680)"/>
<path d="M98.9455 229.661C111.448 223.146 115.727 200.778 108.62 193.508C103.818 188.596 96.9327 193.762 90.2893 188.671C81.8079 182.17 88.0474 169.927 81.3776 154.047C75.7019 140.532 62.0903 127.745 54.1364 130.369C45.8099 133.116 41.4233 153.494 48.5349 165.759C53.1589 173.735 60.2375 174.127 61.7738 181.545C63.5558 190.152 54.9475 194.077 54.8997 202.421C54.8172 217.408 82.4063 238.279 98.9455 229.661Z" fill="#BDD0FB"/>
<path d="M92.2 235.389C92.2742 235.389 92.3501 235.373 92.4226 235.338C92.6765 235.215 92.782 234.911 92.6583 234.658C76.0845 200.504 71.2247 160.885 71.1769 160.487C71.1439 160.209 70.8901 160.008 70.6115 160.042C70.3329 160.075 70.1334 160.329 70.1664 160.608C70.2142 161.005 75.0954 200.796 91.7434 235.101C91.8291 235.284 92.0105 235.389 92.2 235.389Z" fill="#91B3FA"/>
<path d="M58.1951 170.749C58.2478 170.749 58.3006 170.733 58.3451 170.698C58.4506 170.616 58.4704 170.462 58.3879 170.357C53.1556 163.641 47.3579 153.552 49.4449 143.625C50.6879 137.712 54.1876 134.628 54.2222 134.598C54.3244 134.51 54.3343 134.357 54.2469 134.255C54.1596 134.153 54.0046 134.143 53.9041 134.23C53.7557 134.359 50.2461 137.453 48.9685 143.524C47.7948 149.104 48.4097 158.343 58.0038 170.655C58.0516 170.716 58.1225 170.749 58.1951 170.749Z" fill="#F0F0F0"/>
<path d="M100.073 226.679C100.15 226.679 100.226 226.641 100.274 226.574C108.314 214.84 111.055 205.773 108.423 199.626C106.082 194.161 100.172 193.144 100.113 193.134C99.979 193.113 99.8554 193.203 99.8339 193.335C99.8125 193.467 99.9032 193.592 100.035 193.614C100.091 193.624 105.747 194.603 107.979 199.824C110.538 205.808 107.811 214.714 99.8735 226.298C99.7977 226.409 99.8257 226.56 99.9362 226.636C99.9774 226.664 100.025 226.679 100.073 226.679Z" fill="#F0F0F0"/>
<path d="M45.5065 126.098H31.3625C29.6085 126.098 27.9864 127.035 27.1094 128.555L20.0374 140.803C19.1604 142.323 19.1604 144.195 20.0374 145.714L27.1094 157.962C27.9864 159.482 29.6085 160.418 31.3625 160.418H45.5065C47.2605 160.418 48.8826 159.482 49.7596 157.962L56.8316 145.714C57.7086 144.194 57.7086 142.321 56.8316 140.803L49.7596 128.555C48.8826 127.033 47.2621 126.098 45.5065 126.098Z" fill="#7D97F4"/>
<path d="M31.3624 158.068C30.4508 158.068 29.6002 157.576 29.1452 156.787L22.0732 144.537C21.6166 143.747 21.6166 142.766 22.0732 141.977L29.1452 129.728C29.6018 128.939 30.4508 128.448 31.3624 128.448H45.5064C46.418 128.448 47.2686 128.939 47.7236 129.728L54.7956 141.978C55.2522 142.768 55.2522 143.749 54.7956 144.538L47.7236 156.787C47.267 157.576 46.418 158.068 45.5064 158.068H31.3624Z" fill="#91B3FA"/>
<path d="M76.9169 145.402H62.7729C61.0189 145.402 59.3968 146.338 58.5198 147.858L51.4478 160.106C50.5708 161.626 50.5708 163.499 51.4478 165.017L58.5198 177.265C59.3968 178.785 61.0189 179.722 62.7729 179.722H76.9169C78.6709 179.722 80.293 178.785 81.17 177.265L88.242 165.017C89.1189 163.497 89.1189 161.625 88.242 160.106L81.17 147.858C80.293 146.337 78.6709 145.402 76.9169 145.402Z" fill="#7D97F4"/>
<path d="M62.7728 177.371C61.8612 177.371 61.0106 176.88 60.5556 176.09L53.4836 163.84C53.027 163.051 53.027 162.07 53.4836 161.28L60.5556 149.032C61.0122 148.242 61.8612 147.751 62.7728 147.751H76.9168C77.8284 147.751 78.679 148.242 79.134 149.032L86.206 161.282C86.6626 162.071 86.6626 163.052 86.206 163.842L79.134 176.09C78.6774 176.88 77.8284 177.371 76.9168 177.371H62.7728Z" fill="#91B3FA"/>
<path d="M79.5343 107.448H65.3903C63.6363 107.448 62.0142 108.384 61.1372 109.904L54.0652 122.152C53.1882 123.672 53.1882 125.545 54.0652 127.063L61.1372 139.311C62.0142 140.831 63.6363 141.767 65.3903 141.767H79.5343C81.2883 141.767 82.9104 140.831 83.7874 139.311L90.8594 127.063C91.7364 125.543 91.7364 123.67 90.8594 122.152L83.7874 109.904C82.9104 108.384 81.2883 107.448 79.5343 107.448Z" fill="#7D97F4"/>
<path d="M65.3902 139.418C64.4786 139.418 63.628 138.927 63.173 138.137L56.101 125.888C55.6444 125.098 55.6444 124.117 56.101 123.327L63.173 111.079C63.6296 110.29 64.4786 109.798 65.3902 109.798H79.5342C80.4458 109.798 81.2965 110.29 81.7514 111.079L88.8234 123.329C89.2801 124.119 89.2801 125.1 88.8234 125.889L81.7514 138.137C81.2948 138.927 80.4458 139.418 79.5342 139.418H65.3902V139.418Z" fill="#91B3FA"/>
<path d="M360.309 111.059C356.91 129.194 332.354 233.807 219.217 226.118C219.217 226.118 215.698 152.675 358 109.237C359.244 108.857 360.53 109.874 360.309 111.059Z" fill="#91B3FA"/>
<path d="M347.61 128.862C345.864 131.591 344.004 134.225 342.104 136.836C341.158 138.145 340.18 139.428 339.211 140.718C338.218 141.991 337.247 143.28 336.232 144.535C332.213 149.586 328.009 154.491 323.629 159.234C314.861 168.708 305.432 177.597 295.252 185.557C292.733 187.582 290.107 189.466 287.511 191.386C284.847 193.214 282.219 195.097 279.474 196.806C276.781 198.597 273.972 200.199 271.199 201.859C269.788 202.647 268.362 203.412 266.944 204.188C266.232 204.569 265.532 204.976 264.808 205.337L262.635 206.416L260.462 207.494C259.737 207.853 259.018 208.221 258.273 208.537L253.841 210.512C253.47 210.674 253.104 210.847 252.729 211L251.6 211.445L249.342 212.335C247.835 212.925 246.34 213.547 244.799 214.041L240.204 215.612C238.661 216.099 237.097 216.522 235.546 216.981L233.213 217.655C232.428 217.856 231.639 218.031 230.851 218.22L226.123 219.335C225.772 219.417 225.419 219.2 225.337 218.848C225.254 218.497 225.472 218.145 225.823 218.062H225.826L225.859 218.054L230.549 216.972C231.33 216.789 232.115 216.62 232.892 216.425L235.206 215.767C236.747 215.321 238.299 214.909 239.832 214.434L244.395 212.897C245.926 212.414 247.413 211.804 248.91 211.227L251.155 210.355L252.278 209.92C252.65 209.769 253.015 209.6 253.382 209.441L257.794 207.502C258.535 207.192 259.251 206.828 259.973 206.475L262.137 205.415L264.302 204.355C265.022 204.001 265.72 203.6 266.43 203.224C267.843 202.459 269.262 201.706 270.67 200.929C273.434 199.291 276.237 197.712 278.924 195.944C281.662 194.258 284.286 192.397 286.947 190.592C289.542 188.691 292.165 186.83 294.682 184.825C304.858 176.947 314.299 168.134 323.087 158.731C327.477 154.023 331.694 149.152 335.727 144.132C336.746 142.886 337.72 141.605 338.718 140.341C339.69 139.058 340.673 137.784 341.622 136.483C343.528 133.892 345.402 131.266 347.143 128.571L347.146 128.566C347.229 128.437 347.4 128.401 347.529 128.483C347.654 128.562 347.692 128.734 347.61 128.862Z" fill="#BDD0FB"/>
<path d="M309.061 24.6471C317.478 46.2472 360.532 173.675 229.71 230.142C229.71 230.142 176.429 152.57 305.271 23.9943C306.399 22.8684 308.511 23.236 309.061 24.6471Z" fill="#BDD0FB"/>
<path d="M303.48 58.4097C302.408 65.6416 301.081 72.8207 299.634 79.9784C298.181 87.1345 296.584 94.2626 294.837 101.353C291.338 115.533 287.277 129.581 282.456 143.378C277.625 157.164 272.053 170.721 265.289 183.699C261.9 190.181 258.22 196.521 254.117 202.591C250.039 208.674 245.506 214.467 240.489 219.826C240.242 220.09 239.828 220.103 239.564 219.857C239.301 219.61 239.288 219.196 239.533 218.932L239.535 218.931L239.538 218.928C244.518 213.651 249.037 207.932 253.11 201.912C257.208 195.905 260.894 189.616 264.295 183.182C271.082 170.296 276.697 156.804 281.574 143.071C286.442 129.329 290.559 115.32 294.113 101.176C295.888 94.1027 297.515 86.9928 298.996 79.8499C300.471 72.7086 301.829 65.5361 302.927 58.3339V58.3289C302.95 58.1772 303.092 58.0734 303.244 58.0965C303.397 58.1179 303.503 58.258 303.48 58.4097Z" fill="#BDD0FB"/>
<path d="M267.953 163.535C274.164 157.67 277.409 148.811 276.457 140.321C275.506 131.832 270.378 123.912 263.022 119.568C258.987 117.185 254.05 115.551 251.818 111.428C250.016 108.102 250.514 104.056 251.002 100.304C253.38 81.9962 254.218 62.7963 247.358 45.6553C237.166 20.1895 209.171 3.09806 181.867 5.612C154.564 3.09971 126.567 20.1895 116.376 45.6553C109.517 62.7963 110.353 81.9962 112.733 100.304C113.221 104.056 113.719 108.102 111.917 111.428C109.685 115.549 104.748 117.185 100.711 119.568C93.3553 123.912 88.2285 131.833 87.2773 140.321C86.3262 148.811 89.5704 157.67 95.7819 163.535C97.8095 165.449 100.229 167.205 101.118 169.847C102.359 173.532 100.193 177.376 99.0343 181.087C95.1406 193.559 103.37 207.232 114.608 213.895C125.141 220.139 137.667 221.687 149.912 222.813C155.244 224.435 160.681 225.978 166.245 225.883C172.143 225.78 178.313 223.53 181.703 218.703C181.76 218.621 181.811 218.535 181.867 218.453C181.923 218.535 181.975 218.621 182.032 218.703C185.422 223.53 191.593 225.782 197.49 225.883C203.054 225.978 208.489 224.435 213.823 222.813C226.068 221.687 238.593 220.139 249.127 213.895C260.367 207.232 268.594 193.559 264.7 181.087C263.542 177.376 261.377 173.532 262.617 169.847C263.505 167.206 265.927 165.449 267.953 163.535Z" fill="url(#paint1_linear_434_680)"/>
<path d="M251.353 203.465C235.336 203.923 214.286 211.702 204.676 198.888C195.065 186.075 198.726 146.72 198.726 146.72C198.726 146.72 186.927 145.491 180.804 145.736C174.682 145.492 162.882 146.72 162.882 146.72C162.882 146.72 166.543 186.075 156.932 198.888C147.322 211.702 126.272 203.923 110.256 203.465C97.582 203.102 93.1426 226.842 94.9823 232.806C95.4538 234.337 96.8715 235.376 98.4738 235.376H265.749C267.351 235.376 268.769 234.337 269.24 232.806C271.083 226.842 264.026 203.102 251.353 203.465Z" fill="url(#paint2_linear_434_680)"/>
<path d="M251.353 203.465C243.057 203.702 233.412 205.903 224.705 206.19C216.746 212.757 201.643 222.398 182.474 221.308C161.355 220.108 146.222 210.987 139.656 206.211C130.272 206.394 119.439 203.729 110.259 203.466C97.5854 203.104 93.146 226.844 94.9857 232.808C95.4572 234.339 96.8749 235.378 98.4772 235.378H265.752C267.354 235.378 268.772 234.339 269.244 232.808C271.083 226.842 264.026 203.102 251.353 203.465Z" fill="url(#paint3_linear_434_680)"/>
<path d="M141.907 55.721C140.959 57.292 140.443 59.0872 140.403 60.9203C140.136 73.1867 139.312 123.652 143.611 133.571C148.946 145.88 162.658 159.315 179.916 161.781C197.174 164.247 218.284 140.545 220.752 129.159C222.054 123.147 221.909 74.3769 221.847 61.3951C221.837 59.1845 221.13 57.0381 219.831 55.2495C214.974 48.5633 201.46 33.0807 181.398 34.7127C167.752 35.8205 153.382 36.709 141.907 55.721Z" fill="url(#paint4_linear_434_680)"/>
<path d="M219.154 97.9815C219.154 97.9815 219.154 75.7929 231.482 88.1186C243.809 100.446 219.154 117.704 219.154 117.704V97.9815Z" fill="url(#paint5_linear_434_680)"/>
<path d="M142.689 97.9815C142.689 97.9815 142.689 75.7929 130.362 88.1186C118.035 100.446 142.689 117.704 142.689 117.704V97.9815Z" fill="url(#paint6_linear_434_680)"/>
<path d="M137.766 78.592C137.795 79.3553 148.322 71.2876 166.487 67.9247C188.643 63.8216 196.371 51.6607 201.362 51.6607C203.824 51.6607 207.516 53.1872 207.106 63.8727C206.695 74.5582 218.184 87.151 227.211 74.939C236.238 62.727 219.415 31.053 180.847 31.8163C142.279 32.5795 136.534 47.2989 137.766 78.592Z" fill="url(#paint7_linear_434_680)"/>
<path d="M145.474 96.1072C147.5 95.2286 149.031 93.1993 151.127 92.3272C153.613 91.292 156.237 91.3002 158.725 92.1096C163.04 93.5141 167.544 96.9957 172.176 94.7851C172.339 94.7076 172.3 94.3747 172.118 94.3829C166.156 94.6631 161.723 89.5875 155.935 89.1786C153.749 89.0237 151.16 88.9858 149.135 90.0062C147.335 90.9128 143.303 93.7779 143.303 93.7779C143.303 93.7779 145.027 96.3017 145.474 96.1072Z" fill="url(#paint8_linear_434_680)"/>
<path d="M216.57 96.1072C214.544 95.2286 213.013 93.1993 210.917 92.3272C208.431 91.292 205.807 91.3002 203.319 92.1096C199.004 93.5141 194.5 96.9957 189.868 94.7851C189.705 94.7076 189.744 94.3747 189.925 94.3829C195.888 94.6631 200.321 89.5875 206.109 89.1786C208.295 89.0237 210.884 88.9858 212.909 90.0062C214.709 90.9128 218.741 93.7779 218.741 93.7779C218.741 93.7779 217.018 96.3017 216.57 96.1072Z" fill="url(#paint9_linear_434_680)"/>
<path d="M189.46 79.009C189.46 80.0921 190.52 80.8636 191.547 80.5223C196.532 78.8656 209.442 75.5192 219.196 81.2823C219.196 81.2823 213.744 68.7439 190.481 77.5221C189.864 77.7545 189.46 78.3496 189.46 79.009Z" fill="url(#paint10_linear_434_680)"/>
<path d="M172.72 79.009C172.72 80.0921 171.66 80.8636 170.633 80.5223C165.648 78.8656 152.738 75.5192 142.984 81.2823C142.984 81.2823 148.436 68.7439 171.699 77.5221C172.314 77.7545 172.72 78.3496 172.72 79.009Z" fill="url(#paint11_linear_434_680)"/>
<path d="M201.58 130.964C201.58 130.964 194.041 127.468 188.857 127.905C183.674 128.342 182.024 129.652 182.024 129.652C182.024 129.652 180.376 128.342 175.191 127.905C170.008 127.468 162.468 130.964 162.468 130.964C166.401 140.911 175.662 144.512 182.024 144.418C188.385 144.512 197.647 140.913 201.58 130.964Z" fill="url(#paint12_linear_434_680)"/>
<path d="M196.664 133.368C196.664 133.368 190.11 137.955 182.026 137.955C173.942 137.955 167.387 133.368 167.387 133.368C167.387 133.368 173.942 132.275 182.026 132.275C190.11 132.275 196.664 133.368 196.664 133.368Z" fill="white"/>
<path d="M124.029 141.661C123.521 141.661 123.008 141.61 122.491 141.5C122.314 141.462 122.2 141.289 122.238 141.112C122.276 140.936 122.448 140.824 122.626 140.86C125.966 141.569 130.591 139.393 132.241 134.647C133.46 131.144 132.972 126.764 130.868 122.313C129.658 119.751 128.053 117.34 126.5 115.009C125.695 113.8 124.863 112.551 124.093 111.29C120.349 105.167 118.269 99.1058 117.908 93.2702C117.483 86.4026 119.571 79.8614 123.638 75.3247C128.282 70.1436 135.12 67.7434 141.194 66.08C145.604 64.8717 150.147 63.8876 154.54 62.9347C160.007 61.7495 165.659 60.5246 171.09 58.8597C182.767 55.2808 191.232 50.215 196.969 43.3771C197.084 43.2386 197.292 43.2205 197.431 43.3359C197.569 43.4513 197.587 43.659 197.472 43.7975C191.651 50.7359 183.084 55.8677 171.282 59.4845C165.826 61.1577 160.16 62.3858 154.681 63.5727C150.296 64.5239 145.762 65.5064 141.369 66.7098C135.387 68.3484 128.659 70.7057 124.128 75.7616C120.176 80.1696 118.148 86.5361 118.564 93.2306C118.918 98.9574 120.967 104.918 124.655 110.949C125.42 112.198 126.247 113.443 127.049 114.646C128.613 116.997 130.232 119.428 131.463 122.035C133.641 126.64 134.137 131.197 132.863 134.863C131.638 138.378 128.062 141.661 124.029 141.661Z" fill="#7D97F4"/>
<path d="M120.943 68.3699C120.936 68.3699 120.931 68.3699 120.924 68.3682C120.835 68.3584 120.769 68.2776 120.779 68.1869C121.175 64.6789 123.377 61.2963 126.826 58.906C130.167 56.5882 134.186 55.4804 137.314 54.7732C143.106 53.4643 149.114 52.8346 154.923 52.2263C156.4 52.0713 157.877 51.9164 159.352 51.7515C166.475 50.952 174.029 49.8393 180.999 47.1341C186.33 45.0636 193.657 41.0875 198.29 33.9018C198.339 33.8259 198.44 33.8045 198.515 33.8523C198.591 33.9018 198.613 34.0023 198.565 34.0782C193.885 41.3381 186.495 45.3505 181.119 47.4375C174.114 50.1575 166.536 51.2735 159.392 52.0746C157.916 52.2395 156.439 52.3944 154.961 52.5494C149.161 53.156 143.162 53.7841 137.389 55.0897C134.29 55.7903 130.313 56.8866 127.016 59.1714C123.646 61.5073 121.493 64.8059 121.109 68.2199C121.096 68.3073 121.025 68.3699 120.943 68.3699Z" fill="#7D97F4"/>
<path d="M240.491 196.256C240.352 196.256 240.225 196.169 240.179 196.03C240.123 195.859 240.217 195.674 240.389 195.618C242.622 194.891 243.755 192.323 243.72 190.162C243.682 187.747 242.543 185.454 241.48 183.493L241.119 182.831C240.072 180.92 238.989 178.944 238.574 176.763C237.332 170.243 242.337 164.711 244.548 162.634C246.361 160.929 248.387 159.422 250.347 157.965C252.518 156.351 254.765 154.681 256.704 152.751C261.024 148.448 262.881 143.308 261.666 138.999C260.512 134.906 257.078 132.323 253.443 129.588C251.76 128.322 250.019 127.013 248.539 125.546C244.175 121.222 241.544 114.714 241.318 107.686C241.129 101.796 242.469 95.5699 245.417 88.6496C245.487 88.4831 245.68 88.4056 245.845 88.4765C246.012 88.5474 246.089 88.7402 246.018 88.9051C243.109 95.7364 241.785 101.872 241.971 107.665C242.192 114.526 244.752 120.874 248.999 125.081C250.448 126.517 252.17 127.813 253.835 129.065C257.398 131.746 261.082 134.517 262.295 138.823C263.575 143.364 261.658 148.745 257.165 153.216C255.192 155.179 252.927 156.864 250.738 158.493C248.793 159.938 246.782 161.433 244.996 163.112C242.865 165.115 238.036 170.441 239.218 176.641C239.614 178.721 240.672 180.651 241.694 182.518L242.057 183.182C243.158 185.211 244.335 187.59 244.376 190.152C244.414 192.554 243.127 195.415 240.591 196.24C240.558 196.251 240.524 196.256 240.491 196.256Z" fill="#7D97F4"/>
<path d="M137.774 62.7882C136.6 62.7882 135.647 61.8354 135.647 60.6617V47.5134C135.647 43.8488 138.628 40.8667 142.292 40.8667H151.392C152.566 40.8667 153.518 41.8195 153.518 42.9932C153.518 44.167 152.566 45.1198 151.392 45.1198H142.292C140.973 45.1198 139.9 46.1929 139.9 47.5117V60.66C139.9 61.8354 138.947 62.7882 137.774 62.7882Z" fill="url(#paint13_linear_434_680)"/>
<path d="M225.989 62.7883C224.816 62.7883 223.863 61.8355 223.863 60.6617V47.5134C223.863 46.1947 222.79 45.1215 221.471 45.1215H212.371C211.197 45.1215 210.245 44.1687 210.245 42.9949C210.245 41.8212 211.197 40.8684 212.371 40.8684H221.471C225.135 40.8684 228.116 43.8505 228.116 47.5151V60.6634C228.116 61.8355 227.165 62.7883 225.989 62.7883Z" fill="url(#paint14_linear_434_680)"/>
<path d="M151.392 166.831H142.292C138.628 166.831 135.647 163.85 135.647 160.186V147.037C135.647 145.863 136.6 144.911 137.774 144.911C138.949 144.911 139.9 145.863 139.9 147.037V160.186C139.9 161.504 140.973 162.578 142.292 162.578H151.392C152.566 162.578 153.518 163.53 153.518 164.704C153.518 165.879 152.566 166.831 151.392 166.831Z" fill="url(#paint15_linear_434_680)"/>
<path d="M221.471 166.831H212.371C211.197 166.831 210.245 165.878 210.245 164.704C210.245 163.53 211.197 162.578 212.371 162.578H221.471C222.79 162.578 223.863 161.504 223.863 160.186V147.037C223.863 145.863 224.816 144.911 225.989 144.911C227.163 144.911 228.116 145.863 228.116 147.037V160.186C228.116 163.85 225.135 166.831 221.471 166.831Z" fill="url(#paint16_linear_434_680)"/>
<path d="M219.281 160.232H144.356C143.125 160.232 142.122 159.23 142.122 157.998V49.3729C142.122 48.1414 143.125 47.1392 144.356 47.1392H219.281C220.513 47.1392 221.515 48.1414 221.515 49.3729V157.998C221.515 159.23 220.514 160.232 219.281 160.232ZM144.358 47.7936C143.487 47.7936 142.778 48.5025 142.778 49.3729V157.998C142.778 158.869 143.487 159.577 144.358 159.577H219.283C220.153 159.577 220.862 158.869 220.862 157.998V49.3729C220.862 48.5025 220.153 47.7936 219.283 47.7936H144.358Z" fill="url(#paint17_linear_434_680)"/>
<path d="M208.862 132.203C209.884 131.18 209.884 129.523 208.862 128.501C207.84 127.478 206.182 127.478 205.16 128.501C204.138 129.523 204.138 131.18 205.16 132.203C206.182 133.225 207.84 133.225 208.862 132.203Z" fill="#91B3FA"/>
<path d="M207.014 130.678C206.911 130.678 206.811 130.63 206.748 130.541C206.643 130.394 206.676 130.19 206.824 130.084L234.634 110.126C234.69 110.087 234.756 110.065 234.825 110.065H328.726C328.908 110.065 329.053 110.212 329.053 110.392C329.053 110.573 328.906 110.718 328.726 110.718H234.931L207.206 130.615C207.145 130.658 207.079 130.678 207.014 130.678Z" fill="#91B3FA"/>
<path d="M147.406 101.817C148.814 101.487 149.687 100.078 149.357 98.6706C149.027 97.263 147.619 96.3894 146.211 96.7193C144.804 97.0492 143.93 98.4577 144.26 99.8653C144.59 101.273 145.998 102.147 147.406 101.817Z" fill="#91B3FA"/>
<path d="M146.811 99.5956C146.745 99.5956 146.679 99.5758 146.62 99.5346L118.896 79.6374H25.1001C24.9187 79.6374 24.7737 79.4907 24.7737 79.311C24.7737 79.1297 24.9204 78.9846 25.1001 78.9846H119.001C119.069 78.9846 119.136 79.006 119.192 79.0456L147.002 99.0038C147.149 99.1093 147.182 99.3137 147.078 99.4604C147.014 99.5478 146.913 99.5956 146.811 99.5956Z" fill="#91B3FA"/>
<path d="M349.673 89.1575H290.453C290.272 89.1575 290.127 89.0108 290.127 88.8311V52.1853C290.127 52.004 290.273 51.8589 290.453 51.8589H349.673C349.855 51.8589 350 52.0056 350 52.1853V88.8295C350 89.0108 349.853 89.1575 349.673 89.1575ZM290.78 88.5031H349.345V52.5133H290.78V88.5031Z" fill="white"/>
<path d="M320.363 80.8145C320.276 80.8145 320.19 80.8145 320.104 80.8129C312.66 80.9101 303.413 76.5746 299.483 66.6359C299.261 66.0721 299.516 65.4308 300.067 65.1753C300.387 65.027 307.943 61.5585 313.367 62.0135C317.086 62.3267 319.132 63.0867 320.102 63.5763C321.075 63.0867 323.119 62.3267 326.838 62.0135C332.26 61.5585 339.82 65.027 340.138 65.1753C340.689 65.4308 340.944 66.0705 340.722 66.6359C336.84 76.4592 327.753 80.8145 320.363 80.8145ZM320.104 78.5231C320.109 78.5231 320.116 78.5231 320.121 78.5231C324.909 78.5874 333.915 76.174 338.16 66.8172C335.984 65.9204 330.77 63.9818 327.033 64.2983C322.392 64.689 320.813 65.805 320.798 65.8166C320.366 66.1595 319.809 66.1628 319.392 65.8017C319.39 65.8017 317.809 64.689 313.176 64.2983C309.435 63.9818 304.223 65.9204 302.048 66.8172C306.293 76.174 315.289 78.594 320.088 78.5231C320.093 78.5231 320.098 78.5231 320.104 78.5231Z" fill="white"/>
<path d="M334.743 68.6191C334.743 68.6191 328.188 73.2068 320.104 73.2068C312.02 73.2068 305.466 68.6191 305.466 68.6191C305.466 68.6191 312.02 67.5261 320.104 67.5261C328.188 67.5261 334.743 68.6191 334.743 68.6191Z" fill="white"/>
<path d="M287.264 116.517C287.258 117.434 286.509 118.174 285.593 118.167C284.676 118.161 283.936 117.412 283.943 116.496C283.949 115.579 284.698 114.839 285.614 114.846C286.532 114.851 287.271 115.599 287.264 116.517Z" fill="url(#paint18_linear_434_680)"/>
<path d="M287.209 116.517C287.202 117.404 286.478 118.118 285.593 118.113C284.706 118.106 283.992 117.384 283.997 116.497C284.004 115.61 284.728 114.896 285.613 114.901C286.501 114.906 287.215 115.63 287.209 116.517Z" fill="url(#paint19_linear_434_680)"/>
<path d="M287.265 126.586C287.258 127.503 286.51 128.243 285.593 128.236C284.677 128.23 283.937 127.481 283.943 126.565C283.95 125.648 284.698 124.908 285.615 124.915C286.533 124.92 287.271 125.668 287.265 126.586Z" fill="url(#paint20_linear_434_680)"/>
<path d="M287.209 126.586C287.202 127.473 286.478 128.187 285.593 128.182C284.706 128.175 283.992 127.453 283.997 126.566C284.004 125.679 284.728 124.965 285.613 124.97C286.501 124.975 287.215 125.699 287.209 126.586Z" fill="url(#paint21_linear_434_680)"/>
<path d="M285.603 138.305C286.521 138.305 287.265 137.561 287.265 136.644C287.265 135.726 286.521 134.982 285.603 134.982C284.686 134.982 283.942 135.726 283.942 136.644C283.942 137.561 284.686 138.305 285.603 138.305Z" fill="url(#paint22_linear_434_680)"/>
<path d="M287.209 136.653C287.202 137.54 286.478 138.254 285.593 138.249C284.706 138.242 283.992 137.52 283.997 136.633C284.004 135.746 284.728 135.033 285.613 135.038C286.501 135.044 287.215 135.768 287.209 136.653Z" fill="url(#paint23_linear_434_680)"/>
<path d="M289.82 116.43L289.828 116.713C289.849 117.48 290.327 118.087 290.911 118.09L335.397 118.157C336.001 118.161 336.492 117.519 336.49 116.728C336.489 115.952 336.015 115.32 335.424 115.304L290.929 114.954C290.304 114.936 289.798 115.612 289.82 116.43Z" fill="url(#paint24_linear_434_680)"/>
<path d="M289.82 126.451L289.828 126.735C289.849 127.501 290.327 128.108 290.911 128.111L335.397 128.179C336.001 128.182 336.492 127.541 336.49 126.75C336.489 125.973 336.015 125.342 335.424 125.325L290.929 124.974C290.304 124.956 289.798 125.632 289.82 126.451Z" fill="url(#paint25_linear_434_680)"/>
<path d="M289.82 136.471L289.828 136.754C289.849 137.521 290.327 138.127 290.911 138.131L335.397 138.198C336.001 138.201 336.492 137.56 336.49 136.769C336.489 135.992 336.015 135.361 335.424 135.345L290.929 134.993C290.304 134.977 289.798 135.651 289.82 136.471Z" fill="url(#paint26_linear_434_680)"/>
<path d="M67.6736 87.0837C67.6802 88.0003 68.4286 88.7404 69.3452 88.7338C70.2618 88.7272 71.002 87.9788 70.9954 87.0623C70.9888 86.1457 70.2404 85.4056 69.3238 85.4122C68.4056 85.4171 67.667 86.1655 67.6736 87.0837Z" fill="url(#paint27_linear_434_680)"/>
<path d="M67.7276 87.0833C67.7342 87.9702 68.4578 88.684 69.3431 88.6791C70.23 88.6725 70.9438 87.9504 70.9388 87.0635C70.9322 86.1766 70.2085 85.4629 69.3233 85.4678C68.4364 85.4727 67.7226 86.1964 67.7276 87.0833Z" fill="#91B3FA"/>
<path d="M67.6736 97.1525C67.6802 98.0691 68.4286 98.8093 69.3452 98.8027C70.2618 98.7961 71.002 98.0477 70.9954 97.1311C70.9888 96.2146 70.2404 95.4744 69.3238 95.481C68.4056 95.4859 67.667 96.2343 67.6736 97.1525Z" fill="url(#paint28_linear_434_680)"/>
<path d="M67.7276 97.1505C67.7342 98.0373 68.4578 98.7511 69.3431 98.7462C70.23 98.7396 70.9438 98.0176 70.9388 97.1307C70.9322 96.2438 70.2085 95.53 69.3233 95.5349C68.4364 95.5415 67.7226 96.2652 67.7276 97.1505Z" fill="#91B3FA"/>
<path d="M67.6736 107.222C67.6802 108.138 68.4286 108.878 69.3452 108.872C70.2618 108.865 71.002 108.117 70.9954 107.2C70.9888 106.284 70.2404 105.543 69.3238 105.55C68.4056 105.555 67.667 106.303 67.6736 107.222Z" fill="url(#paint29_linear_434_680)"/>
<path d="M67.7276 107.22C67.7342 108.106 68.4578 108.82 69.3431 108.815C70.23 108.809 70.9438 108.087 70.9388 107.2C70.9322 106.313 70.2085 105.599 69.3233 105.604C68.4364 105.609 67.7226 106.333 67.7276 107.22Z" fill="#91B3FA"/>
<path d="M65.1184 86.9958L65.1102 87.2793C65.0888 88.0459 64.6107 88.6525 64.0272 88.6558L19.5412 88.7234C18.9378 88.7267 18.4466 88.0854 18.4482 87.2941C18.4499 86.5177 18.923 85.8863 19.5148 85.8699L64.009 85.5204C64.6338 85.5022 65.1399 86.1781 65.1184 86.9958Z" fill="#91B3FA"/>
<path d="M65.1184 97.0159L65.1102 97.2994C65.0888 98.066 64.6107 98.6726 64.0272 98.6759L19.5412 98.7435C18.9378 98.7468 18.4466 98.1055 18.4482 97.3143C18.4499 96.5378 18.923 95.9065 19.5148 95.89L64.009 95.5389C64.6338 95.5224 65.1399 96.1983 65.1184 97.0159Z" fill="#91B3FA"/>
<path d="M65.1184 107.037L65.1102 107.321C65.0888 108.087 64.6107 108.694 64.0272 108.697L19.5412 108.765C18.9378 108.768 18.4466 108.127 18.4482 107.335C18.4499 106.559 18.923 105.928 19.5148 105.911L64.009 105.56C64.6338 105.542 65.1399 106.218 65.1184 107.037Z" fill="#91B3FA"/>
<path d="M95.6948 74.555H36.4746C36.2933 74.555 36.1482 74.4083 36.1482 74.2286V37.5827C36.1482 37.4014 36.2949 37.2563 36.4746 37.2563H95.6948C95.8761 37.2563 96.0212 37.4031 96.0212 37.5827V74.2269C96.0212 74.4083 95.8745 74.555 95.6948 74.555ZM36.801 73.9005H95.3668V37.9108H36.801V73.9005Z" fill="white"/>
<path d="M64.6667 69.1019C52.7119 69.1019 43.2529 58.2038 42.8572 57.7406C42.4913 57.312 42.4913 56.6806 42.8572 56.252C43.2545 55.7888 52.7119 44.8906 64.6667 44.8906C76.6215 44.8906 86.0805 55.7888 86.4761 56.252C86.8421 56.6806 86.8421 57.312 86.4761 57.7406C86.0788 58.2038 76.6215 69.1019 64.6667 69.1019ZM45.2838 56.9971C46.2267 57.9779 48.0895 59.7896 50.5754 61.5815C53.8856 63.9669 59.0173 66.8122 64.6667 66.8122C70.316 66.8122 75.4478 63.9669 78.7579 61.5815C81.2438 59.7896 83.1066 57.9779 84.0495 56.9971C83.1066 56.0163 81.2438 54.2046 78.7579 52.4127C75.4478 50.0273 70.316 47.182 64.6667 47.182C59.0173 47.182 53.8856 50.0257 50.5754 52.4127C48.0912 54.2029 46.2267 56.0146 45.2838 56.9971Z" fill="white"/>
<path d="M64.6666 66.8123C59.2547 66.8123 54.8516 62.4092 54.8516 56.9972C54.8516 51.5852 59.2547 47.1821 64.6666 47.1821C70.0786 47.1821 74.4817 51.5852 74.4817 56.9972C74.4817 62.4092 70.0786 66.8123 64.6666 66.8123ZM64.6666 49.4719C60.5174 49.4719 57.1413 52.848 57.1413 56.9972C57.1413 61.1464 60.5174 64.5225 64.6666 64.5225C68.8159 64.5225 72.192 61.1464 72.192 56.9972C72.192 52.8463 68.8159 49.4719 64.6666 49.4719Z" fill="white"/>
<path d="M64.6667 61.7399C67.2869 61.7399 69.411 59.6158 69.411 56.9956C69.411 54.3753 67.2869 52.2512 64.6667 52.2512C62.0465 52.2512 59.9224 54.3753 59.9224 56.9956C59.9224 59.6158 62.0465 61.7399 64.6667 61.7399Z" fill="white"/>
<path d="M60.1088 157.507C60.1088 157.507 57.1646 161.434 53.6929 162.507C52.0411 163.018 49.1018 164.361 48.7013 167.591C48.4952 169.259 47.2605 170.594 45.5988 170.848C41.4611 171.483 35.0864 173.631 34.066 180.813C33.2879 186.296 36.0821 188.375 39.0164 189.095C41.171 189.625 42.6019 191.72 42.1667 193.894C41.7479 195.981 42.3727 198.393 45.9862 200.298C54.0852 204.571 62.1743 190.173 62.1743 190.173L63.831 165.032L60.1088 157.507Z" fill="url(#paint30_linear_434_680)"/>
<path d="M78.6442 152.603C78.6442 152.603 73.8686 165.624 65.73 169.693C65.73 169.693 68.4384 174.112 69.8528 174.381C69.8528 174.381 78.547 163.254 79.4338 154.138L78.6442 152.603Z" fill="url(#paint31_linear_434_680)"/>
<path d="M45.9137 230.926L45.673 232.9C45.6269 233.275 45.3318 233.571 44.9576 233.614C44.3246 233.687 43.3091 233.761 42.3151 233.655C41.8782 233.609 41.5963 233.168 41.7282 232.749C41.9705 231.987 42.414 230.842 43.0536 230.169H45.2444C45.6483 230.169 45.9632 230.523 45.9137 230.926Z" fill="url(#paint32_linear_434_680)"/>
<path d="M63.0712 207.794L63.4404 209.968C63.4404 209.968 62.2024 222.51 61.9815 227.526C61.9469 228.313 62.1513 229.091 62.5634 229.76L64.7164 233.256L59.245 230.027L59.1362 229.359L60.0314 228.128L58.8576 214.078C58.7884 213.252 58.9582 212.425 59.3489 211.694L60.4814 209.568L63.0712 207.794Z" fill="url(#paint33_linear_434_680)"/>
<path d="M65.0772 233.763H63.3315C63.0051 233.763 62.6968 233.613 62.4974 233.354C61.9534 232.647 60.8258 231.267 60.2868 231.231C59.5614 231.183 59.6537 233.763 59.6537 233.763H59.2466L58.7306 230.556C58.6004 229.749 59.0026 228.951 59.7263 228.572C59.7263 228.572 59.8928 229.798 60.7928 230.342C61.6929 230.884 64.4541 232.83 64.4541 232.83C64.4541 232.83 64.792 232.782 65.163 232.848C65.7135 232.947 65.6361 233.763 65.0772 233.763Z" fill="url(#paint34_linear_434_680)"/>
<path d="M55.5772 208.826C55.5772 208.826 48.3238 222.584 47.1715 225.727C46.0192 228.869 45.6154 231.488 45.5989 231.737C45.5741 232.124 45.0928 232.497 43.7625 232.497C43.0767 232.497 42.7404 232.222 42.5755 231.956C42.4354 231.729 42.4272 231.445 42.5459 231.206C42.9662 230.357 44.2966 227.644 44.7895 226.412C45.378 224.943 46.644 218.284 47.3397 215.967C48.0337 213.651 48.82 211.141 51.8433 208.826C51.845 208.826 53.9204 206.794 55.5772 208.826Z" fill="url(#paint35_linear_434_680)"/>
<path d="M60.1582 186.281C62.0292 178.354 57.2898 173.868 57.2898 173.868C60.2801 170.998 65.73 169.691 65.73 169.691C65.73 169.691 70.9294 173.492 70.3128 176.468C69.9518 178.212 66.6581 186.914 66.6581 186.914C66.6581 186.914 63.6117 188.357 60.1582 186.281Z" fill="#FF64AE"/>
<path d="M56.0107 190.208C56.7723 187.914 60.1583 186.283 60.1583 186.283C63.6119 188.357 66.6566 186.916 66.6566 186.916C66.6566 186.916 67.3391 189.527 66.8676 191.952C66.3962 194.379 63.4388 209.969 63.4388 209.969C58.7785 210.913 51.6125 209.019 51.6125 209.019C54.5815 203.749 55.2491 192.501 56.0107 190.208Z" fill="url(#paint36_linear_434_680)"/>
<path d="M62.331 164.454L60.8095 171.286C60.6644 171.888 61.2117 171.789 61.8216 171.675C62.8173 171.488 64.1031 171.1 64.5318 170.325C64.5763 170.246 64.5977 170.157 64.6092 170.068L65.262 165.331C65.3131 164.955 65.1104 164.59 64.7642 164.435L63.5031 163.877C63.0168 163.659 62.4547 163.938 62.331 164.454Z" fill="url(#paint37_linear_434_680)"/>
<path d="M57.2899 173.87C57.2899 173.87 46.6721 181.466 55.9316 189.448C55.9316 189.448 56.2844 189.847 56.98 190.055C57.3312 190.16 58.368 190.945 58.8939 191.354C59.0637 191.486 59.3077 191.441 59.4214 191.26C59.5104 191.118 59.5203 190.94 59.4495 190.788L58.1356 188.009C57.7713 187.668 57.2125 187.645 56.8185 187.951C56.5679 188.147 56.2003 188.065 56.0602 187.78C55.3447 186.323 53.993 182.035 59.5253 177.19C59.733 177.009 59.7857 176.707 59.6588 176.461C59.2681 175.713 58.3779 174.231 57.2899 173.87Z" fill="url(#paint38_linear_434_680)"/>
<path d="M64.1148 157.947C64.1148 157.947 65.9166 158.707 67.1414 161.312C68.3662 163.914 67.4513 165.116 66.3023 165.283C65.1533 165.448 63.4356 165.423 61.6173 163.741C59.8007 162.058 61.7739 157.045 64.1148 157.947Z" fill="url(#paint39_linear_434_680)"/>
<path d="M62.8403 162.35C62.8403 162.35 61.4803 158.542 64.8581 158.496L65.6526 159.052C65.6526 159.052 66.8923 156.94 64.8581 155.931C62.8238 154.924 60.445 155.756 59.5796 158.496C58.7141 161.236 58.5658 163.071 60.0065 164.381C61.4457 165.692 62.0391 164.206 62.0391 164.206C62.0391 164.206 61.2545 162.98 61.5743 162.324C61.8941 161.668 62.6293 162.459 62.6293 162.459L62.8403 162.35Z" fill="url(#paint40_linear_434_680)"/>
<path d="M62.461 162.774C62.461 162.774 61.7735 160.812 60.857 161.594C59.9404 162.375 61.6021 163.405 62.2533 163.74L62.461 162.774Z" fill="url(#paint41_linear_434_680)"/>
<path d="M79.1026 154.972C79.1751 155.204 78.3311 155.557 77.8349 154.609C77.8168 154.156 77.5415 152.209 77.8135 151.84C79.2592 149.87 82.06 147.4 82.06 147.4C82.5331 147.867 82.1441 148.327 82.1441 148.327L80.7841 149.743C81.0676 150.257 81.4154 150.691 81.577 151.312C81.7006 151.782 81.6248 152.286 81.3874 152.713C81.1484 153.143 80.8236 153.702 80.5154 154.139C79.9335 154.967 79.1026 154.972 79.1026 154.972Z" fill="url(#paint42_linear_434_680)"/>
<path d="M79.8278 154.01L79.5064 153.953C79.5443 153.737 79.8921 151.834 80.1757 151.373C80.2779 151.206 80.3191 151.07 80.2944 150.979C80.2828 150.938 80.2531 150.898 80.207 150.862L79.091 151.808L78.7168 152.814L78.4102 152.7L78.814 151.614L80.1691 150.465L80.2663 150.514C80.4526 150.61 80.5664 150.733 80.6092 150.89C80.662 151.076 80.6109 151.289 80.4543 151.543C80.24 151.891 79.9284 153.442 79.8278 154.01Z" fill="url(#paint43_linear_434_680)"/>
<path opacity="0.71" d="M39.9924 185.525C38.5549 185.525 37.0795 184.509 36.5338 183.027C35.9602 181.468 36.3327 179.557 37.5064 178.041C38.4494 176.822 39.8967 175.827 41.8073 175.082C42.864 174.669 43.9751 174.356 45.0499 174.055C45.6384 173.89 46.2467 173.718 46.8385 173.534C48.2381 173.095 49.7827 172.474 50.635 171.185C51.1575 170.392 51.357 169.431 51.5482 168.501C51.5911 168.291 51.6356 168.082 51.6818 167.876C51.8977 166.918 52.3098 165.567 53.3912 164.884C53.8808 164.574 54.4562 164.439 55.0117 164.309C55.1914 164.266 55.3777 164.223 55.5573 164.174C56.4838 163.921 57.0838 163.506 57.3427 162.942C57.3525 162.921 57.3773 162.912 57.3971 162.922C57.4185 162.932 57.4267 162.955 57.4168 162.977C57.1481 163.564 56.53 163.994 55.5788 164.253C55.3974 164.302 55.2112 164.347 55.0315 164.388C54.4825 164.518 53.9138 164.652 53.4357 164.953C52.3807 165.619 51.9752 166.951 51.7625 167.894C51.7164 168.1 51.6735 168.31 51.629 168.519C51.4361 169.457 51.235 170.425 50.7026 171.231C49.8371 172.543 48.276 173.171 46.8632 173.613C46.2698 173.799 45.6615 173.971 45.0713 174.135C43.9982 174.437 42.8904 174.749 41.837 175.159C39.9396 175.899 38.5054 176.887 37.5707 178.093C36.4135 179.589 36.0459 181.469 36.6097 183.003C37.2377 184.709 39.1236 185.784 40.7259 185.35C40.7474 185.343 40.7704 185.357 40.7754 185.378C40.782 185.399 40.7688 185.423 40.7474 185.428C40.5017 185.493 40.2479 185.525 39.9924 185.525Z" fill="white"/>
<path opacity="0.71" d="M39.6511 184.115C39.6495 184.115 39.6462 184.115 39.6445 184.115C38.9489 184.003 38.334 183.392 38.1494 182.632C37.9878 181.967 38.1213 181.211 38.5252 180.502C39.3445 179.06 41.0408 178.107 43.563 177.672C44.0213 177.592 44.4927 177.526 44.9494 177.462C46.4363 177.254 47.9727 177.038 49.3063 176.333C50.7372 175.575 51.8582 174.261 52.3824 172.729C52.6428 171.969 52.7599 171.157 52.8736 170.37C52.9412 169.909 53.0088 169.431 53.1061 168.966C53.4358 167.396 54.0836 166.308 55.0315 165.73C55.0513 165.718 55.076 165.725 55.0875 165.743C55.0991 165.763 55.0925 165.788 55.0744 165.799C54.1463 166.365 53.5116 167.436 53.1852 168.982C53.0879 169.444 53.0187 169.92 52.9528 170.38C52.839 171.17 52.7203 171.986 52.4566 172.754C51.9258 174.305 50.79 175.634 49.3409 176.402C47.9958 177.116 46.4511 177.332 44.9576 177.541C44.5026 177.606 44.0312 177.672 43.5729 177.751C41.0754 178.183 39.3989 179.121 38.5912 180.542C38.1988 181.232 38.0686 181.967 38.2236 182.612C38.3999 183.342 38.9868 183.928 39.6511 184.035C39.6742 184.038 39.6891 184.059 39.6858 184.081C39.6874 184.101 39.6709 184.115 39.6511 184.115Z" fill="white"/>
<path d="M285.537 170.922C285.537 170.922 277.316 180.083 282.593 180.083C282.919 180.083 287.174 180.083 287.174 180.083L285.537 170.922Z" fill="#FF64AE"/>
<path d="M289.342 229.086C289.342 229.086 289.621 230.665 289.757 232.229C289.81 232.841 289.34 233.372 288.727 233.396C286.645 233.484 282.191 233.652 280.592 233.581C280.351 233.57 280.195 233.324 280.284 233.101C280.358 232.913 280.501 232.763 280.684 232.679L288.041 229.298L289.342 229.086Z" fill="url(#paint44_linear_434_680)"/>
<path d="M289.571 228.157L289.347 230.047C289.347 230.047 288.058 230.647 287.177 229.971L287.712 227.866L289.571 228.157Z" fill="url(#paint45_linear_434_680)"/>
<path d="M289.403 192.638C289.5 193.131 289.923 217.26 287.344 228.072C287.301 228.249 287.392 228.43 287.56 228.499C287.956 228.661 288.731 228.895 289.66 228.926C289.949 228.936 290.206 228.748 290.287 228.473C291.024 225.964 294.556 213.394 295.018 201.386C295.532 187.969 295.018 200.93 295.018 200.93L294.716 192.636L289.403 192.638Z" fill="url(#paint46_linear_434_680)"/>
<path d="M297.806 229.91C297.806 229.91 298.249 230.708 298.679 232.826C298.757 233.209 298.49 233.575 298.101 233.612C297.413 233.68 296.355 233.767 295.506 233.761C295.115 233.758 294.81 233.418 294.856 233.031C294.95 232.257 295.242 230.988 296.147 229.999L297.806 229.91Z" fill="url(#paint47_linear_434_680)"/>
<path d="M298.196 227.48L297.672 230.337C297.672 230.337 297.155 230.723 296.129 230.442L296.38 227.368L298.196 227.48Z" fill="url(#paint48_linear_434_680)"/>
<path d="M299.61 193.378C301.72 206.108 299.152 224.843 298.287 228.509C298.234 228.733 298.053 228.904 297.825 228.942C297.439 229.007 296.803 229.059 296.175 228.876C295.959 228.814 295.807 228.619 295.797 228.393C295.682 225.429 295.89 207.23 293.925 200.038C293.826 199.673 293.603 199.355 293.295 199.136L289.481 196.424L289.189 192.041L299.61 193.378Z" fill="url(#paint49_linear_434_680)"/>
<path d="M285.538 170.922C291.754 168.959 299.467 170.917 299.467 170.917C301.351 181.913 299.797 194.594 299.797 194.594C294.903 195.879 289.382 193.81 289.382 193.81C288.567 189.212 283.678 171.509 285.538 170.922Z" fill="#FF64AE"/>
<path d="M297.042 177.036L299.467 170.916C299.467 170.916 305.372 174.928 306.343 180.014C305.227 180.096 303.198 180.386 301.21 181.39C300.773 178.988 297.042 177.036 297.042 177.036Z" fill="#FF64AE"/>
<path d="M291.881 182.796C291.881 182.796 298.511 186.543 300.746 183.344C301.211 182.679 301.322 182.02 301.208 181.39C303.194 180.386 305.225 180.096 306.341 180.014C306.635 181.547 306.48 183.179 305.578 184.827C301.66 191.995 291.004 184.432 291.004 184.432L291.881 182.796Z" fill="url(#paint50_linear_434_680)"/>
<path d="M292.679 187.535L289.06 174.9C289.019 174.756 288.897 174.653 288.749 174.634C288.093 174.559 286.193 174.343 284.001 174.158C281.358 173.934 278.292 173.754 276.458 173.907C276.197 173.929 276.039 174.204 276.156 174.44C277.198 176.548 281.487 185.129 283.633 187.939C283.704 188.032 283.815 188.086 283.932 188.086L292.326 188.009C292.57 188.005 292.745 187.771 292.679 187.535Z" fill="url(#paint51_linear_434_680)"/>
<path d="M283.625 173.063L281.002 172.627C280.862 172.604 280.748 172.737 280.793 172.871L281.053 173.657C281.077 173.726 281.136 173.776 281.207 173.784L283.731 174.122C283.861 174.14 283.97 174.021 283.938 173.893L283.777 173.205C283.76 173.133 283.699 173.077 283.625 173.063Z" fill="#7D97F4"/>
<path d="M285.589 175.284L285.373 174.158C285.351 174.044 285.257 173.96 285.144 173.949L279.845 173.411C279.667 173.393 279.524 173.556 279.567 173.731L279.903 175.134C279.929 175.246 280.028 175.327 280.144 175.333L285.322 175.594C285.49 175.602 285.622 175.45 285.589 175.284Z" fill="#7D97F4"/>
<path d="M291.803 184.484C291.803 184.484 292.308 182.412 292.103 181.677C291.9 180.942 291.506 179.997 290.193 180.206C288.88 180.416 287.331 180.97 287.331 180.97C287.331 180.97 287.408 181.927 288.407 181.619L287.789 182.097C287.789 182.097 287.878 182.864 288.72 182.455L288.145 183.09C288.145 183.09 288.508 183.719 289.128 183.315C289.748 182.91 290.044 184.733 291.803 184.484Z" fill="url(#paint52_linear_434_680)"/>
<path d="M279.605 181.969C279.605 181.969 277.595 181.252 277.092 180.678C276.59 180.104 276.016 179.257 276.913 178.275C277.81 177.292 279.122 176.301 279.122 176.301C279.122 176.301 279.88 176.893 279.074 177.557L279.814 177.304C279.814 177.304 280.406 177.798 279.601 178.278L280.449 178.146C280.449 178.146 280.777 178.794 280.098 179.091C279.418 179.386 280.778 180.635 279.605 181.969Z" fill="url(#paint53_linear_434_680)"/>
<path d="M292.899 165.358L294.91 171.176C294.943 171.271 294.904 171.379 294.815 171.428C294.266 171.731 292.291 172.607 289.911 171.098C289.663 170.942 289.494 170.685 289.456 170.393L288.804 165.358H292.899Z" fill="url(#paint54_linear_434_680)"/>
<path d="M288.523 159.973C288.523 159.973 286.314 164.13 286.597 165.81C286.881 167.49 289.617 167.37 292.007 166.005L293.677 161.516L288.523 159.973Z" fill="url(#paint55_linear_434_680)"/>
<path d="M291.902 163.801C291.805 163.758 291.768 163.639 291.828 163.55C292.004 163.28 292.337 162.728 292.443 162.246C292.443 162.246 292.84 161.992 291.432 161.654C290.024 161.318 287.926 160.794 287.484 159.597C287.054 158.428 288.185 155.491 289.988 157.832C290.057 157.921 290.191 157.922 290.26 157.833C290.555 157.449 291.333 156.65 292.411 157.134C293.422 157.588 293.536 158.328 293.521 158.7C293.517 158.811 293.615 158.895 293.722 158.875C294.233 158.778 295.458 158.694 296.03 159.952C296.501 160.987 296.194 161.572 295.916 161.859C295.825 161.951 295.865 162.104 295.988 162.142C296.325 162.245 296.757 162.53 296.714 163.316C296.654 164.402 295.44 164.307 295.093 164.257C295.037 164.249 294.98 164.269 294.942 164.312C294.645 164.64 293.308 166.034 291.862 166.203C291.737 166.217 291.64 166.094 291.681 165.973L292.307 164.153C292.337 164.069 292.296 163.975 292.215 163.941L291.902 163.801Z" fill="url(#paint56_linear_434_680)"/>
<path d="M291.651 164.058C291.651 164.058 293.224 162.978 293.339 163.888C293.455 164.796 291.923 165.204 291.165 164.866L291.651 164.058Z" fill="url(#paint57_linear_434_680)"/>
<defs>
<linearGradient id="paint0_linear_434_680" x1="133.512" y1="-32.9173" x2="246.51" y2="287.36" gradientUnits="userSpaceOnUse">
<stop stop-color="#DAE3FE"/>
<stop offset="1" stop-color="#E9EFFD"/>
</linearGradient>
<linearGradient id="paint1_linear_434_680" x1="218.5" y1="-16.3381" x2="155.743" y2="257.186" gradientUnits="userSpaceOnUse">
<stop stop-color="#09005D"/>
<stop offset="1" stop-color="#1A0F91"/>
</linearGradient>
<linearGradient id="paint2_linear_434_680" x1="182.534" y1="111.538" x2="182.04" y2="234.692" gradientUnits="userSpaceOnUse">
<stop stop-color="#FF928E"/>
<stop offset="1" stop-color="#FEB3B1"/>
</linearGradient>
<linearGradient id="paint3_linear_434_680" x1="181.218" y1="215.942" x2="185.798" y2="291.849" gradientUnits="userSpaceOnUse">
<stop stop-color="#4042E2"/>
<stop offset="1" stop-color="#4F52FF"/>
</linearGradient>
<linearGradient id="paint4_linear_434_680" x1="177.987" y1="10.7644" x2="183.922" y2="146.777" gradientUnits="userSpaceOnUse">
<stop stop-color="#FF928E"/>
<stop offset="1" stop-color="#FEB3B1"/>
</linearGradient>
<linearGradient id="paint5_linear_434_680" x1="222.772" y1="8.81" x2="228.707" y2="144.824" gradientUnits="userSpaceOnUse">
<stop stop-color="#FF928E"/>
<stop offset="1" stop-color="#FEB3B1"/>
</linearGradient>
<linearGradient id="paint6_linear_434_680" x1="139.789" y1="-7.64148" x2="133.854" y2="128.372" gradientUnits="userSpaceOnUse">
<stop stop-color="#FF928E"/>
<stop offset="1" stop-color="#FEB3B1"/>
</linearGradient>
<linearGradient id="paint7_linear_434_680" x1="202.032" y1="-14.9684" x2="150.005" y2="211.791" gradientUnits="userSpaceOnUse">
<stop stop-color="#09005D"/>
<stop offset="1" stop-color="#1A0F91"/>
</linearGradient>
<linearGradient id="paint8_linear_434_680" x1="157.792" y1="23.4637" x2="157.792" y2="59.569" gradientUnits="userSpaceOnUse">
<stop stop-color="#09005D"/>
<stop offset="1" stop-color="#1A0F91"/>
</linearGradient>
<linearGradient id="paint9_linear_434_680" x1="226.901" y1="22.8175" x2="217.009" y2="53.977" gradientUnits="userSpaceOnUse">
<stop stop-color="#09005D"/>
<stop offset="1" stop-color="#1A0F91"/>
</linearGradient>
<linearGradient id="paint10_linear_434_680" x1="196.174" y1="18.319" x2="200.377" y2="50.2155" gradientUnits="userSpaceOnUse">
<stop stop-color="#09005D"/>
<stop offset="1" stop-color="#1A0F91"/>
</linearGradient>
<linearGradient id="paint11_linear_434_680" x1="172.408" y1="-30.2639" x2="168.205" y2="1.63258" gradientUnits="userSpaceOnUse">
<stop stop-color="#09005D"/>
<stop offset="1" stop-color="#1A0F91"/>
</linearGradient>
<linearGradient id="paint12_linear_434_680" x1="163.021" y1="137.447" x2="201.85" y2="134.143" gradientUnits="userSpaceOnUse">
<stop stop-color="#E1473D"/>
<stop offset="1" stop-color="#E9605A"/>
</linearGradient>
<linearGradient id="paint13_linear_434_680" x1="135.646" y1="51.8271" x2="153.518" y2="51.8271" gradientUnits="userSpaceOnUse">
<stop stop-color="#DAE3FE"/>
<stop offset="1" stop-color="#E9EFFD"/>
</linearGradient>
<linearGradient id="paint14_linear_434_680" x1="210.244" y1="51.8272" x2="228.116" y2="51.8272" gradientUnits="userSpaceOnUse">
<stop stop-color="#DAE3FE"/>
<stop offset="1" stop-color="#E9EFFD"/>
</linearGradient>
<linearGradient id="paint15_linear_434_680" x1="135.646" y1="155.871" x2="153.518" y2="155.871" gradientUnits="userSpaceOnUse">
<stop stop-color="#DAE3FE"/>
<stop offset="1" stop-color="#E9EFFD"/>
</linearGradient>
<linearGradient id="paint16_linear_434_680" x1="210.244" y1="155.871" x2="228.116" y2="155.871" gradientUnits="userSpaceOnUse">
<stop stop-color="#DAE3FE"/>
<stop offset="1" stop-color="#E9EFFD"/>
</linearGradient>
<linearGradient id="paint17_linear_434_680" x1="142.124" y1="103.686" x2="221.516" y2="103.686" gradientUnits="userSpaceOnUse">
<stop stop-color="#DAE3FE"/>
<stop offset="1" stop-color="#E9EFFD"/>
</linearGradient>
<linearGradient id="paint18_linear_434_680" x1="288.323" y1="113.894" x2="283.213" y2="118.801" gradientUnits="userSpaceOnUse">
<stop stop-color="#53D8FF"/>
<stop offset="1" stop-color="#3840F7"/>
</linearGradient>
<linearGradient id="paint19_linear_434_680" x1="283.998" y1="116.506" x2="287.21" y2="116.506" gradientUnits="userSpaceOnUse">
<stop stop-color="#DAE3FE"/>
<stop offset="1" stop-color="#E9EFFD"/>
</linearGradient>
<linearGradient id="paint20_linear_434_680" x1="288.324" y1="123.963" x2="283.214" y2="128.87" gradientUnits="userSpaceOnUse">
<stop stop-color="#53D8FF"/>
<stop offset="1" stop-color="#3840F7"/>
</linearGradient>
<linearGradient id="paint21_linear_434_680" x1="283.998" y1="126.574" x2="287.21" y2="126.574" gradientUnits="userSpaceOnUse">
<stop stop-color="#DAE3FE"/>
<stop offset="1" stop-color="#E9EFFD"/>
</linearGradient>
<linearGradient id="paint22_linear_434_680" x1="288.324" y1="134.032" x2="283.214" y2="138.939" gradientUnits="userSpaceOnUse">
<stop stop-color="#53D8FF"/>
<stop offset="1" stop-color="#3840F7"/>
</linearGradient>
<linearGradient id="paint23_linear_434_680" x1="283.998" y1="136.643" x2="287.21" y2="136.643" gradientUnits="userSpaceOnUse">
<stop stop-color="#DAE3FE"/>
<stop offset="1" stop-color="#E9EFFD"/>
</linearGradient>
<linearGradient id="paint24_linear_434_680" x1="289.819" y1="116.555" x2="336.49" y2="116.555" gradientUnits="userSpaceOnUse">
<stop stop-color="#DAE3FE"/>
<stop offset="1" stop-color="#E9EFFD"/>
</linearGradient>
<linearGradient id="paint25_linear_434_680" x1="289.819" y1="126.575" x2="336.49" y2="126.575" gradientUnits="userSpaceOnUse">
<stop stop-color="#DAE3FE"/>
<stop offset="1" stop-color="#E9EFFD"/>
</linearGradient>
<linearGradient id="paint26_linear_434_680" x1="289.819" y1="136.595" x2="336.49" y2="136.595" gradientUnits="userSpaceOnUse">
<stop stop-color="#DAE3FE"/>
<stop offset="1" stop-color="#E9EFFD"/>
</linearGradient>
<linearGradient id="paint27_linear_434_680" x1="66.6148" y1="84.4605" x2="71.7245" y2="89.3676" gradientUnits="userSpaceOnUse">
<stop stop-color="#53D8FF"/>
<stop offset="1" stop-color="#3840F7"/>
</linearGradient>
<linearGradient id="paint28_linear_434_680" x1="66.6148" y1="94.5292" x2="71.7244" y2="99.4364" gradientUnits="userSpaceOnUse">
<stop stop-color="#53D8FF"/>
<stop offset="1" stop-color="#3840F7"/>
</linearGradient>
<linearGradient id="paint29_linear_434_680" x1="66.6148" y1="104.598" x2="71.7245" y2="109.505" gradientUnits="userSpaceOnUse">
<stop stop-color="#53D8FF"/>
<stop offset="1" stop-color="#3840F7"/>
</linearGradient>
<linearGradient id="paint30_linear_434_680" x1="65.4153" y1="141.65" x2="54.081" y2="170.082" gradientUnits="userSpaceOnUse">
<stop stop-color="#09005D"/>
<stop offset="1" stop-color="#1A0F91"/>
</linearGradient>
<linearGradient id="paint31_linear_434_680" x1="74.3992" y1="159.176" x2="65.1985" y2="180.11" gradientUnits="userSpaceOnUse">
<stop stop-color="#A22B25"/>
<stop offset="1" stop-color="#C0423C"/>
</linearGradient>
<linearGradient id="paint32_linear_434_680" x1="45.919" y1="231.938" x2="41.696" y2="231.938" gradientUnits="userSpaceOnUse">
<stop stop-color="#A737D5"/>
<stop offset="1" stop-color="#EF497A"/>
</linearGradient>
<linearGradient id="paint33_linear_434_680" x1="63.7635" y1="248.592" x2="57.6863" y2="177.564" gradientUnits="userSpaceOnUse">
<stop stop-color="#A22B25"/>
<stop offset="1" stop-color="#C0423C"/>
</linearGradient>
<linearGradient id="paint34_linear_434_680" x1="65.5387" y1="231.167" x2="58.7055" y2="231.167" gradientUnits="userSpaceOnUse">
<stop stop-color="#A737D5"/>
<stop offset="1" stop-color="#EF497A"/>
</linearGradient>
<linearGradient id="paint35_linear_434_680" x1="51.5388" y1="249.649" x2="45.4599" y2="178.602" gradientUnits="userSpaceOnUse">
<stop stop-color="#A22B25"/>
<stop offset="1" stop-color="#C0423C"/>
</linearGradient>
<linearGradient id="paint36_linear_434_680" x1="46.8744" y1="178.349" x2="62.0682" y2="202.659" gradientUnits="userSpaceOnUse">
<stop stop-color="#4042E2"/>
<stop offset="1" stop-color="#4F52FF"/>
</linearGradient>
<linearGradient id="paint37_linear_434_680" x1="64.43" y1="178.579" x2="63.2884" y2="170.228" gradientUnits="userSpaceOnUse">
<stop stop-color="#A22B25"/>
<stop offset="1" stop-color="#C0423C"/>
</linearGradient>
<linearGradient id="paint38_linear_434_680" x1="55.1288" y1="189.138" x2="61.0182" y2="165.145" gradientUnits="userSpaceOnUse">
<stop stop-color="#A22B25"/>
<stop offset="1" stop-color="#C0423C"/>
</linearGradient>
<linearGradient id="paint39_linear_434_680" x1="67.3115" y1="167.812" x2="57.351" y2="150.085" gradientUnits="userSpaceOnUse">
<stop stop-color="#A22B25"/>
<stop offset="1" stop-color="#C0423C"/>
</linearGradient>
<linearGradient id="paint40_linear_434_680" x1="65.1694" y1="152.375" x2="60.1892" y2="164.868" gradientUnits="userSpaceOnUse">
<stop stop-color="#09005D"/>
<stop offset="1" stop-color="#1A0F91"/>
</linearGradient>
<linearGradient id="paint41_linear_434_680" x1="65.1909" y1="169.003" x2="55.2304" y2="151.277" gradientUnits="userSpaceOnUse">
<stop stop-color="#A22B25"/>
<stop offset="1" stop-color="#C0423C"/>
</linearGradient>
<linearGradient id="paint42_linear_434_680" x1="76.2175" y1="159.975" x2="67.0167" y2="180.909" gradientUnits="userSpaceOnUse">
<stop stop-color="#A22B25"/>
<stop offset="1" stop-color="#C0423C"/>
</linearGradient>
<linearGradient id="paint43_linear_434_680" x1="80.6273" y1="152.238" x2="78.4086" y2="152.238" gradientUnits="userSpaceOnUse">
<stop stop-color="#A22B25"/>
<stop offset="1" stop-color="#C0423C"/>
</linearGradient>
<linearGradient id="paint44_linear_434_680" x1="312.367" y1="300.443" x2="303.355" y2="277.804" gradientUnits="userSpaceOnUse">
<stop stop-color="#09005D"/>
<stop offset="1" stop-color="#1A0F91"/>
</linearGradient>
<linearGradient id="paint45_linear_434_680" x1="289.571" y1="229.08" x2="287.178" y2="229.08" gradientUnits="userSpaceOnUse">
<stop stop-color="#FF928E"/>
<stop offset="1" stop-color="#FEB3B1"/>
</linearGradient>
<linearGradient id="paint46_linear_434_680" x1="295.453" y1="194.861" x2="283.474" y2="228.381" gradientUnits="userSpaceOnUse">
<stop stop-color="#09005D"/>
<stop offset="1" stop-color="#1A0F91"/>
</linearGradient>
<linearGradient id="paint47_linear_434_680" x1="322.196" y1="296.532" x2="313.184" y2="273.893" gradientUnits="userSpaceOnUse">
<stop stop-color="#09005D"/>
<stop offset="1" stop-color="#1A0F91"/>
</linearGradient>
<linearGradient id="paint48_linear_434_680" x1="298.196" y1="228.957" x2="296.13" y2="228.957" gradientUnits="userSpaceOnUse">
<stop stop-color="#FF928E"/>
<stop offset="1" stop-color="#FEB3B1"/>
</linearGradient>
<linearGradient id="paint49_linear_434_680" x1="298.819" y1="196.064" x2="286.84" y2="229.583" gradientUnits="userSpaceOnUse">
<stop stop-color="#09005D"/>
<stop offset="1" stop-color="#1A0F91"/>
</linearGradient>
<linearGradient id="paint50_linear_434_680" x1="290.039" y1="187.045" x2="304.436" y2="183.308" gradientUnits="userSpaceOnUse">
<stop stop-color="#FF928E"/>
<stop offset="1" stop-color="#FEB3B1"/>
</linearGradient>
<linearGradient id="paint51_linear_434_680" x1="282.983" y1="188.951" x2="285.621" y2="174.115" gradientUnits="userSpaceOnUse">
<stop stop-color="#09005D"/>
<stop offset="1" stop-color="#1A0F91"/>
</linearGradient>
<linearGradient id="paint52_linear_434_680" x1="297.005" y1="171.984" x2="290.081" y2="181.985" gradientUnits="userSpaceOnUse">
<stop stop-color="#FF928E"/>
<stop offset="1" stop-color="#FEB3B1"/>
</linearGradient>
<linearGradient id="paint53_linear_434_680" x1="277.623" y1="181.084" x2="280.269" y2="177.055" gradientUnits="userSpaceOnUse">
<stop stop-color="#FF928E"/>
<stop offset="1" stop-color="#FEB3B1"/>
</linearGradient>
<linearGradient id="paint54_linear_434_680" x1="290.628" y1="161.052" x2="292.826" y2="174.789" gradientUnits="userSpaceOnUse">
<stop stop-color="#FF928E"/>
<stop offset="1" stop-color="#FEB3B1"/>
</linearGradient>
<linearGradient id="paint55_linear_434_680" x1="266.811" y1="218.705" x2="269.69" y2="211.848" gradientUnits="userSpaceOnUse">
<stop stop-color="#FF928E"/>
<stop offset="1" stop-color="#FEB3B1"/>
</linearGradient>
<linearGradient id="paint56_linear_434_680" x1="297.637" y1="156.34" x2="288.948" y2="163.203" gradientUnits="userSpaceOnUse">
<stop stop-color="#09005D"/>
<stop offset="1" stop-color="#1A0F91"/>
</linearGradient>
<linearGradient id="paint57_linear_434_680" x1="269.086" y1="219.661" x2="271.966" y2="212.804" gradientUnits="userSpaceOnUse">
<stop stop-color="#FF928E"/>
<stop offset="1" stop-color="#FEB3B1"/>
</linearGradient>
</defs>
</svg>
