<svg width="18" height="19" viewBox="0 0 18 19" fill="none" xmlns="http://www.w3.org/2000/svg">
<path d="M2.35205 10.5198L1.57158 9.73936C1.24111 9.40889 1.24111 8.87451 1.57158 8.54756L8.40244 1.71318C8.73291 1.38271 9.26729 1.38271 9.59424 1.71318L16.4251 8.54404C16.7556 8.87451 16.7556 9.40889 16.4251 9.73584L15.6446 10.5163C15.3106 10.8503 14.7657 10.8433 14.4388 10.5022L10.4063 6.26943V16.3733C10.4063 16.8409 10.0302 17.2171 9.5626 17.2171H8.4376C7.97002 17.2171 7.59385 16.8409 7.59385 16.3733V6.26943L3.55791 10.5058C3.23096 10.8503 2.68604 10.8573 2.35205 10.5198Z" fill="white"/>
</svg>
